<svg preserveAspectRatio="none" width="100%" height="100%" overflow="visible" style="display: block;" viewBox="0 0 141 30" fill="none" xmlns="http://www.w3.org/2000/svg">
<g id="billyPaul-Logo">
<g id="BILLY PAUL">
<path id="Vector" d="M123.134 29V14.9H124.994V27.4H132.054V29H123.134Z" fill="var(--fill-0, black)"/>
<path id="Vector_2" d="M111.365 29.18C109.499 29.18 108.079 28.6867 107.105 27.7C106.132 26.7133 105.645 25.2667 105.645 23.36V14.9H107.505V23.3C107.505 24.7267 107.832 25.7933 108.485 26.5C109.139 27.1933 110.099 27.54 111.365 27.54C112.632 27.54 113.592 27.1933 114.245 26.5C114.899 25.7933 115.225 24.7267 115.225 23.3V14.9H117.065V23.36C117.065 25.2667 116.579 26.7133 115.605 27.7C114.645 28.6867 113.232 29.18 111.365 29.18Z" fill="var(--fill-0, black)"/>
<path id="Vector_3" d="M87.375 29L93.615 14.9H95.195L101.435 29H99.535L97.815 25L98.675 25.48H90.115L90.975 25L89.275 29H87.375ZM94.375 17L91.255 24.38L90.775 23.96H98.015L97.555 24.38L94.415 17H94.375Z" fill="var(--fill-0, black)"/>
<path id="Vector_4" d="M74.6859 29V14.9H80.3859C81.3993 14.9 82.2593 15.0667 82.9659 15.4C83.6726 15.7333 84.2059 16.22 84.5659 16.86C84.9393 17.4867 85.1259 18.2533 85.1259 19.16C85.1259 20.0667 84.9393 20.84 84.5659 21.48C84.2059 22.12 83.6726 22.6067 82.9659 22.94C82.2593 23.2733 81.3993 23.44 80.3859 23.44H76.5459V29H74.6859ZM76.5459 21.94H80.1459C81.1859 21.94 81.9659 21.7067 82.4859 21.24C83.0193 20.76 83.2859 20.0667 83.2859 19.16C83.2859 18.2533 83.0193 17.5733 82.4859 17.12C81.9659 16.6533 81.1859 16.42 80.1459 16.42H76.5459V21.94Z" fill="var(--fill-0, black)"/>
<path id="Vector_5" d="M54.4 29V21.7L54.8 22.94L49 14.9H51.16L55.6 21.04H55.14L59.58 14.9H61.64L55.86 22.94L56.26 21.7V29H54.4Z" fill="var(--fill-0, black)"/>
<path id="Vector_6" d="M39 29V14.9H40.86V27.4H47.92V29H39Z" fill="var(--fill-0, black)"/>
<path id="Vector_7" d="M25 29V14.9H26.86V27.4H33.92V29H25Z" fill="var(--fill-0, black)"/>
<path id="Vector_8" d="M17 29V14.9H18.86V29H17Z" fill="var(--fill-0, black)"/>
<path id="Vector_9" d="M1 29V14.9H6.74C8.20667 14.9 9.34 15.2267 10.14 15.88C10.94 16.52 11.34 17.42 11.34 18.58C11.34 19.4467 11.0867 20.1733 10.58 20.76C10.0733 21.3467 9.38 21.74 8.5 21.94V21.64C9.15333 21.72 9.72 21.9133 10.2 22.22C10.68 22.5133 11.0467 22.9067 11.3 23.4C11.5533 23.88 11.68 24.4467 11.68 25.1C11.68 25.94 11.4933 26.6533 11.12 27.24C10.76 27.8133 10.2267 28.2533 9.52 28.56C8.81333 28.8533 7.96667 29 6.98 29H1ZM2.8 27.54H6.78C7.19333 27.54 7.56667 27.5133 7.9 27.46C8.23333 27.3933 8.52 27.2933 8.76 27.16C9 27.0267 9.2 26.86 9.36 26.66C9.53333 26.46 9.66 26.2267 9.74 25.96C9.82 25.6933 9.86 25.3933 9.86 25.06C9.86 24.7133 9.82 24.4133 9.74 24.16C9.66 23.8933 9.53333 23.6667 9.36 23.48C9.2 23.28 9 23.1133 8.76 22.98C8.52 22.8467 8.23333 22.7533 7.9 22.7C7.56667 22.6333 7.19333 22.6 6.78 22.6H2.8V27.54ZM2.8 21.12H6.46C7.47333 21.12 8.23333 20.92 8.74 20.52C9.26 20.1067 9.52 19.5133 9.52 18.74C9.52 17.9667 9.26 17.38 8.74 16.98C8.23333 16.5667 7.47333 16.36 6.46 16.36H2.8V21.12Z" fill="var(--fill-0, black)"/>
</g>
<path id="Subtract" d="M132 0.5C136.971 0.5 141 4.52944 141 9.5C141 14.4706 136.971 18.5 132 18.5V9.5H123C123 4.52944 127.029 0.5 132 0.5Z" fill="var(--fill-0, black)"/>
</g>
</svg>
